<?xml version="1.0" standalone="no"?>
<!DOCTYPE svg PUBLIC "-//W3C//DTD SVG 20010904//EN"
 "http://www.w3.org/TR/2001/REC-SVG-20010904/DTD/svg10.dtd">
<svg version="1.0" xmlns="http://www.w3.org/2000/svg"
 width="547.000000pt" height="547.000000pt" viewBox="0 0 547.000000 547.000000"
 preserveAspectRatio="xMidYMid meet">
<metadata>
Created by potrace 1.14, written by Peter Selinger 2001-2017
</metadata>
<g transform="translate(0.000000,547.000000) scale(0.100000,-0.100000)"
fill="#000000" stroke="none">
<path d="M3575 4893 c-9 -8 -24 -11 -39 -7 -13 3 -32 1 -43 -4 -10 -6 -38 -12
-63 -15 -51 -6 -100 -23 -100 -34 0 -5 -13 -8 -30 -9 -16 -1 -45 -13 -64 -28
-19 -14 -39 -26 -45 -26 -5 0 -22 -11 -37 -25 -15 -14 -35 -24 -44 -23 -9 2
-33 -13 -53 -32 -20 -19 -49 -46 -65 -60 -15 -14 -31 -34 -35 -44 -4 -10 -10
-16 -13 -13 -8 8 -51 -37 -46 -50 2 -6 -13 -28 -32 -49 -20 -21 -36 -41 -37
-44 -4 -27 -10 -50 -25 -85 -41 -98 -53 -135 -56 -170 l-3 -30 -18 33 c-10 18
-29 37 -42 42 -14 5 -25 16 -25 23 0 7 -19 24 -42 37 -24 13 -51 32 -61 42
-10 10 -23 16 -28 12 -6 -3 -21 4 -33 15 -13 13 -40 23 -62 25 -22 2 -39 5
-39 6 0 1 -17 4 -38 6 -21 1 -44 7 -51 13 -7 6 -17 6 -26 1 -8 -5 -21 -5 -31
1 -14 7 -84 6 -84 -1 0 -1 -24 -3 -53 -3 -34 -1 -56 -7 -62 -16 -7 -12 -12
-12 -23 -3 -11 10 -17 9 -27 -3 -7 -8 -23 -15 -36 -15 -12 0 -26 -4 -29 -10
-3 -5 -15 -10 -25 -10 -10 0 -25 -7 -34 -15 -8 -8 -21 -15 -29 -15 -8 0 -18
-7 -21 -16 -4 -11 -13 -14 -27 -11 -15 4 -22 -1 -29 -19 -6 -15 -15 -22 -24
-18 -9 3 -26 -5 -41 -22 -14 -15 -35 -33 -48 -39 -12 -6 -21 -16 -20 -22 1 -6
-8 -14 -21 -17 -14 -3 -26 -16 -30 -29 -3 -13 -21 -43 -41 -68 -19 -24 -42
-69 -51 -99 -8 -30 -22 -66 -31 -79 -8 -12 -13 -31 -10 -41 4 -16 2 -16 -22
-4 -14 8 -32 14 -38 14 -7 0 -13 4 -13 9 0 5 -14 12 -30 16 -17 4 -30 10 -30
14 0 4 -13 6 -30 3 -17 -2 -30 0 -30 7 0 6 -19 10 -46 9 -28 0 -49 5 -54 12
-11 18 -156 20 -189 4 -15 -8 -32 -9 -46 -4 -14 5 -27 4 -34 -3 -6 -6 -11 -8
-11 -4 0 4 -10 2 -22 -4 -13 -7 -36 -14 -51 -16 -15 -1 -37 -12 -49 -23 -12
-11 -31 -20 -43 -20 -12 0 -32 -11 -45 -25 -13 -14 -31 -25 -40 -25 -17 0
-110 -85 -110 -100 0 -5 -9 -15 -21 -23 -11 -8 -21 -24 -22 -36 -1 -11 -7 -23
-14 -25 -7 -3 -13 -12 -13 -20 0 -9 -9 -20 -20 -26 -11 -6 -20 -21 -20 -35 0
-13 -4 -27 -10 -30 -5 -3 -10 -17 -10 -31 0 -14 -7 -27 -15 -30 -11 -4 -12
-11 -5 -24 7 -13 4 -23 -10 -40 -15 -17 -17 -26 -8 -45 6 -15 7 -29 0 -41 -5
-11 -8 -32 -6 -49 1 -16 5 -62 7 -101 3 -41 11 -81 20 -95 10 -15 13 -29 8
-38 -11 -17 -3 -41 13 -41 8 0 11 -11 8 -30 -3 -23 0 -30 12 -30 37 0 14 -38
-50 -80 -37 -24 -69 -52 -72 -62 -2 -9 -14 -24 -27 -32 -13 -8 -28 -31 -35
-51 -6 -19 -16 -35 -21 -35 -5 0 -17 -17 -25 -37 -9 -21 -20 -46 -25 -55 -5
-11 -4 -20 3 -24 7 -5 5 -11 -7 -20 -20 -15 -22 -41 -14 -221 4 -85 10 -117
22 -131 9 -10 14 -27 11 -38 -3 -12 2 -27 15 -38 12 -11 21 -27 21 -37 0 -10
4 -21 10 -24 5 -3 10 -15 10 -26 0 -11 7 -22 15 -25 8 -4 15 -12 15 -19 0 -7
11 -21 25 -31 14 -10 37 -36 52 -56 14 -21 30 -38 35 -38 16 0 78 -45 78 -57
0 -7 8 -13 19 -13 10 0 24 -6 30 -14 7 -8 21 -12 31 -9 11 3 20 1 20 -4 0 -6
13 -10 29 -11 16 0 42 -9 57 -19 20 -13 29 -14 32 -5 7 22 31 13 38 -14 4 -17
2 -29 -7 -35 -11 -6 -11 -14 -3 -37 7 -18 8 -36 2 -46 -5 -10 -5 -23 2 -37 6
-11 10 -35 9 -52 -2 -18 0 -37 3 -42 3 -6 9 -28 14 -49 4 -22 24 -62 45 -89
20 -28 35 -55 33 -61 -8 -20 129 -136 160 -136 9 0 19 -7 22 -15 4 -8 10 -12
15 -9 12 7 80 -17 100 -36 12 -11 16 -33 15 -90 l-1 -75 -77 -3 -78 -3 3 -69
2 -70 45 0 c25 -1 785 -1 1690 -1 l1645 -1 3 74 3 73 -81 -1 -81 -2 3 97 c2
55 7 96 13 96 6 1 20 6 32 13 12 7 36 11 52 10 16 -1 36 4 45 11 9 7 22 11 30
8 7 -3 37 12 65 33 29 22 58 37 65 34 8 -3 21 4 29 16 8 12 21 18 29 15 9 -4
37 13 70 40 30 25 62 45 71 45 9 0 24 11 33 25 9 14 23 25 30 25 8 0 20 11 26
25 6 14 15 25 20 25 13 0 68 56 68 69 0 6 15 21 34 32 23 13 37 30 41 51 4 18
15 32 26 35 10 3 17 9 14 13 -3 5 -1 11 5 15 5 3 10 14 10 23 1 9 14 32 30 51
16 19 27 37 25 41 -3 4 6 23 19 43 17 25 21 38 13 46 -7 7 -5 12 7 17 13 5 14
9 4 21 -10 12 -9 17 6 25 12 7 16 17 12 33 -3 13 -2 26 3 29 16 10 -1 273 -21
309 -7 12 -11 26 -9 31 1 6 -3 20 -10 33 -7 13 -9 26 -6 29 4 4 1 12 -7 18 -7
6 -17 24 -20 39 -6 27 -3 30 44 50 27 11 50 25 50 30 0 14 32 36 53 37 9 0 17
7 17 15 0 8 7 15 15 15 8 0 15 6 15 14 0 7 11 25 25 40 14 15 25 31 25 36 0 5
6 15 13 22 36 39 68 101 63 124 -4 15 -2 24 5 24 6 0 9 9 6 20 -3 11 -1 22 4
25 4 3 6 12 3 19 -3 8 -1 17 4 20 6 3 8 15 5 25 -3 10 0 22 6 25 7 5 7 13 -2
27 -10 16 -9 21 2 28 10 6 11 17 6 37 -5 16 -9 55 -10 87 0 44 -5 61 -17 68
-10 5 -15 16 -12 23 3 8 1 17 -5 21 -6 3 -11 15 -11 26 0 10 -4 19 -10 19 -5
0 -10 11 -10 24 0 14 -10 37 -23 53 -12 15 -29 40 -36 56 -8 15 -23 27 -33 27
-11 0 -16 4 -13 10 3 5 -3 15 -15 22 -11 7 -20 18 -20 25 0 7 -9 13 -21 13
-12 0 -23 8 -26 20 -3 11 -9 17 -14 15 -12 -8 -98 38 -99 53 0 13 -9 15 -52
12 -20 -1 -28 3 -28 14 0 10 -9 16 -22 16 -12 0 -37 5 -55 12 l-33 12 2 76 c1
42 -1 81 -5 87 -4 6 -3 14 3 18 6 4 7 11 4 17 -13 21 -15 79 -4 93 7 9 8 15 2
15 -13 0 -23 38 -11 45 4 3 4 16 -1 29 -5 13 -8 38 -8 54 1 17 -6 42 -15 56
-10 14 -17 34 -17 45 0 11 -4 23 -10 26 -5 3 -10 15 -10 26 0 10 -4 19 -10 19
-5 0 -14 19 -21 43 -14 54 -33 89 -64 123 -14 15 -25 32 -25 38 0 7 -13 23
-30 36 -16 14 -29 31 -30 38 0 6 -7 12 -15 12 -8 0 -15 8 -15 18 0 21 -47 65
-60 57 -5 -3 -16 5 -25 19 -9 13 -29 29 -44 36 -16 6 -43 26 -61 45 -18 18
-38 31 -45 29 -7 -3 -20 3 -30 12 -9 10 -29 19 -43 20 -15 2 -31 10 -37 18 -6
8 -23 18 -38 21 -15 4 -27 11 -27 17 0 5 -8 7 -18 3 -11 -3 -32 1 -48 10 -16
8 -37 12 -46 9 -12 -3 -18 0 -18 10 0 13 -13 16 -64 16 -36 0 -68 4 -71 10 -3
5 -38 9 -78 10 -40 0 -105 2 -145 4 -53 2 -77 -1 -87 -11z"/>
</g>
</svg>
